<svg width="24" height="25" viewBox="0 0 24 25" fill="none" xmlns="http://www.w3.org/2000/svg">
<g id="Brands/Instagram">
<g id="Icon">
<path d="M15.9999 7.01396C15.9999 6.46168 16.4477 6.01396 16.9999 6.01396C17.5522 6.01396 17.9999 6.46168 17.9999 7.01396C17.9999 7.56625 17.5522 8.01396 16.9999 8.01396C16.4477 8.01396 15.9999 7.56625 15.9999 7.01396Z" fill="#1B2B19"/>
<path fill-rule="evenodd" clip-rule="evenodd" d="M11.9999 7.26396C9.37659 7.26396 7.24994 9.39061 7.24994 12.014C7.24994 14.6373 9.37659 16.764 11.9999 16.764C14.6233 16.764 16.7499 14.6373 16.7499 12.014C16.7499 9.39061 14.6233 7.26396 11.9999 7.26396ZM8.74994 12.014C8.74994 10.219 10.205 8.76396 11.9999 8.76396C13.7949 8.76396 15.2499 10.219 15.2499 12.014C15.2499 13.8089 13.7949 15.264 11.9999 15.264C10.205 15.264 8.74994 13.8089 8.74994 12.014Z" fill="#1B2B19"/>
<path fill-rule="evenodd" clip-rule="evenodd" d="M17.2582 2.84698C13.7916 2.45954 10.2083 2.45954 6.74171 2.84698C4.72965 3.07185 3.10532 4.65686 2.86876 6.67939C2.45423 10.2237 2.45423 13.8042 2.86876 17.3485C3.10532 19.3711 4.72965 20.9561 6.74171 21.1809C10.2083 21.5684 13.7916 21.5684 17.2582 21.1809C19.2702 20.9561 20.8946 19.3711 21.1311 17.3485C21.5457 13.8042 21.5457 10.2237 21.1311 6.67939C20.8946 4.65686 19.2703 3.07185 17.2582 2.84698ZM6.90832 4.3377C10.2642 3.96263 13.7357 3.96263 17.0916 4.3377C18.4217 4.48635 19.4872 5.53597 19.6413 6.85364C20.0423 10.2822 20.0423 13.7458 19.6413 17.1743C19.4872 18.492 18.4217 19.5416 17.0916 19.6902C13.7357 20.0653 10.2642 20.0653 6.90832 19.6902C5.57821 19.5416 4.51272 18.492 4.35861 17.1743C3.95761 13.7458 3.95761 10.2822 4.35861 6.85364C4.51272 5.53597 5.57821 4.48635 6.90832 4.3377Z" fill="#1B2B19"/>
</g>
</g>
</svg>
