<svg width="901" height="92" viewBox="0 0 901 92" fill="none" xmlns="http://www.w3.org/2000/svg">
<path d="M216.704 9.58288L186.094 41.185C198.288 55.1666 210.482 69.196 222.776 83.1297H206.7L174.248 45.255V83.1297H161.456V9.58288H174.248V37.6417C183.157 28.3047 191.967 18.9199 200.777 9.58288H216.704ZM300.87 69.4833H264.536L259.31 83.1297H245.672L276.431 9.58288H289.173L319.883 83.1297H306.395L300.87 69.4833ZM269.264 58.4225H296.639L282.752 24.3305L269.264 58.4225ZM381.75 83.2733C376.662 83.4159 371.597 82.5665 366.859 80.7763C362.121 78.9861 357.809 76.2921 354.182 72.8564C350.555 69.4208 347.688 65.3146 345.754 60.7851C343.82 56.2555 342.858 51.3963 342.928 46.4999C342.928 36.5946 347.018 27.095 354.299 20.0909C361.579 13.0868 371.454 9.15194 381.75 9.15194C392.047 9.15194 401.922 13.0868 409.202 20.0909C416.483 27.095 420.573 36.5946 420.573 46.4999C420.617 51.4032 419.628 56.2642 417.667 60.7902C415.706 65.3163 412.813 69.4138 409.163 72.836C405.513 76.2582 401.18 78.9344 396.426 80.7035C391.672 82.4725 386.596 83.2978 381.502 83.1297L381.75 83.2733ZM381.75 21.0267C378.294 20.9581 374.86 21.572 371.66 22.8306C368.46 24.0891 365.563 25.9655 363.146 28.3439C360.73 30.7223 358.846 33.5521 357.612 36.6584C356.377 39.7647 355.818 43.0816 355.968 46.4042C355.968 52.9823 358.685 59.291 363.52 63.9424C368.355 68.5939 374.913 71.207 381.75 71.207C388.588 71.207 395.146 68.5939 399.981 63.9424C404.816 59.291 407.533 52.9823 407.533 46.4042C407.7 43.0553 407.144 39.7095 405.9 36.5776C404.656 33.4457 402.751 30.5956 400.306 28.2069C397.86 25.8183 394.927 23.9428 391.69 22.6988C388.454 21.4548 384.985 20.8691 381.502 20.9788L381.75 21.0267ZM508.522 9.58288L477.911 41.185C490.106 55.1666 502.3 69.196 514.594 83.1297H498.517L466.066 45.255V83.1297H453.423V9.58288H466.215V37.6417C475.124 28.3047 483.934 18.9199 492.793 9.58288H508.522ZM592.787 69.4833H556.453L550.978 83.1297H537.589L568.249 9.58288H580.891L611.601 83.1297H598.212L592.787 69.4833ZM560.833 58.4225H588.208L574.57 24.4742L560.833 58.4225ZM696.563 9.58288L665.953 41.185C678.147 55.1666 690.391 69.196 702.635 83.1297H686.609L654.107 45.255V83.1297H641.315V9.58288H654.107V37.6417C663.016 28.3047 671.826 18.9199 680.686 9.58288H696.563ZM780.729 69.4833H744.445L738.92 83.1297H725.581L756.29 9.58288H768.933L799.642 83.1297H786.254L780.729 69.4833ZM748.924 58.4225H776.249L762.612 24.4742L748.924 58.4225ZM861.56 83.1297C856.476 83.2657 851.416 82.4114 846.684 80.6183C841.952 78.8251 837.646 76.13 834.024 72.6951C830.402 69.2601 827.54 65.1562 825.609 60.6299C823.678 56.1036 822.718 51.2485 822.787 46.3563C822.787 36.451 826.877 26.9514 834.158 19.9473C841.438 12.9432 851.313 9.00829 861.609 9.00829C871.906 9.00829 881.781 12.9432 889.061 19.9473C896.342 26.9514 900.432 36.451 900.432 46.3563C900.495 51.2549 899.527 56.1152 897.588 60.6449C895.648 65.1747 892.776 69.2804 889.145 72.7153C885.514 76.1503 881.199 78.8435 876.458 80.6332C871.718 82.4229 866.65 83.272 861.56 83.1297ZM861.56 20.883C858.104 20.8144 854.669 21.4284 851.469 22.6869C848.27 23.9455 845.372 25.8219 842.956 28.2003C840.539 30.5786 838.656 33.4084 837.421 36.5148C836.186 39.6211 835.627 42.938 835.778 46.2605C835.778 52.8386 838.494 59.1474 843.329 63.7988C848.164 68.4502 854.722 71.0634 861.56 71.0634C868.398 71.0634 874.955 68.4502 879.791 63.7988C884.626 59.1474 887.342 52.8386 887.342 46.2605C887.486 42.9441 886.921 39.6346 885.683 36.5364C884.445 33.4382 882.559 30.6173 880.143 28.2478C877.726 25.8784 874.831 24.0109 871.634 22.7606C868.438 21.5103 865.009 20.9039 861.56 20.9788V20.883ZM71.069 91.5569H94.6115V68.9087C94.6115 62.902 92.1311 57.1414 87.716 52.894C83.301 48.6467 77.3128 46.2605 71.069 46.2605C64.9905 46.2563 59.1469 48.5187 54.766 52.5724C50.3851 56.6262 47.808 62.1556 47.5762 67.9989V69.9142C47.8331 75.7407 50.4212 81.2461 54.7994 85.2795C59.1776 89.3129 65.007 91.5621 71.069 91.5569ZM47.5762 46.2605V67.9989C47.5501 68.3177 47.5501 68.6379 47.5762 68.9566C47.5501 69.2753 47.5501 69.5955 47.5762 69.9142V91.6048H0.491211V0.964111C12.7159 0.970628 24.4587 5.55075 33.2365 13.7359C42.0142 21.9211 47.1388 33.0697 47.5265 44.824V46.2605H47.5762ZM47.5762 46.2605H70.4717C76.8785 46.2478 83.0185 43.7905 87.5441 39.4278C92.0698 35.0651 94.6115 29.1533 94.6115 22.9898V0.964111H71.6662C65.264 0.964111 59.1239 3.41079 54.5968 7.76591C50.0697 12.121 47.5265 18.0278 47.5265 24.1869V44.824C47.5265 45.3029 47.5265 45.7817 47.5265 46.2605H47.5762Z" fill="#010101"/>
</svg>
