<svg width="24" height="25" viewBox="0 0 24 25" fill="none" xmlns="http://www.w3.org/2000/svg">
<path fill-rule="evenodd" clip-rule="evenodd" d="M5.78754 14.0335C5.83131 14.0483 5.87549 14.0587 5.91963 14.0652C5.96777 14.1783 6.02996 14.3246 6.10252 14.4957C6.27959 14.9134 6.51818 15.4782 6.76446 16.0674C7.2667 17.2691 7.77332 18.5079 7.88521 18.8624C8.02372 19.3007 8.17013 19.5988 8.32996 19.8022C8.4126 19.9074 8.50819 19.9993 8.62003 20.0688C8.67633 20.1038 8.7358 20.1326 8.79788 20.1539C8.80062 20.1549 8.80335 20.1558 8.80608 20.1567C9.1261 20.2775 9.41786 20.2272 9.60053 20.1657C9.69827 20.1328 9.77735 20.093 9.8334 20.0608C9.86198 20.0443 9.88612 20.029 9.90538 20.0161L9.90992 20.013L12.7361 18.2505L16.0007 20.7533C16.0488 20.7903 16.1014 20.8212 16.157 20.8455C16.5492 21.0166 16.929 21.0763 17.2862 21.0275C17.6429 20.9788 17.926 20.829 18.1368 20.6604C18.3432 20.4952 18.4832 20.3103 18.5703 20.1728C18.6148 20.1026 18.6482 20.0406 18.6718 19.993C18.6836 19.9691 18.6931 19.9485 18.7005 19.932L18.7099 19.9102L18.7135 19.9016L18.715 19.898L18.7156 19.8963L18.7163 19.8947C18.7334 19.8518 18.7466 19.8075 18.7556 19.7622L21.7358 4.73666C21.7453 4.6886 21.7501 4.63973 21.7501 4.59074C21.7501 4.15073 21.5843 3.73232 21.1945 3.47843C20.8613 3.26143 20.4901 3.25209 20.2556 3.2699C20.0025 3.2891 19.7688 3.35157 19.612 3.40149C19.5304 3.42747 19.4619 3.45253 19.4126 3.47165C19.3878 3.48126 19.3675 3.48951 19.3523 3.49579L19.341 3.50058L2.62725 10.0571L2.62509 10.0579C2.61444 10.0618 2.60076 10.0669 2.58451 10.0732C2.55215 10.0858 2.50878 10.1036 2.45813 10.1265C2.35935 10.1713 2.22077 10.2413 2.07856 10.3386C1.85137 10.4942 1.32888 10.9203 1.41686 11.6236C1.48705 12.1847 1.87143 12.5293 2.10562 12.695C2.23421 12.786 2.35638 12.851 2.44535 12.8934C2.48662 12.9131 2.57232 12.9479 2.6095 12.963L2.61889 12.9668L5.78754 14.0335ZM19.9259 4.88178L19.9236 4.88279C19.9152 4.88641 19.9069 4.88988 19.8984 4.89319L3.1644 11.4577C3.15566 11.4611 3.14686 11.4644 3.138 11.4675L3.12869 11.471C3.11798 11.4752 3.09996 11.4825 3.07734 11.4928C3.06451 11.4986 3.05112 11.5049 3.03747 11.5117C3.05622 11.5223 3.07417 11.5315 3.09012 11.539C3.10543 11.5463 3.11711 11.5513 3.1235 11.5539L6.26613 12.6119C6.32365 12.6313 6.37727 12.657 6.42649 12.6879L16.8033 6.61339L16.813 6.60765C16.8205 6.60319 16.8305 6.59745 16.8424 6.59072C16.866 6.57737 16.8984 6.55959 16.937 6.53995C17.009 6.5033 17.1243 6.44889 17.2541 6.40877C17.3444 6.38083 17.6109 6.30215 17.899 6.39455C18.0768 6.45158 18.2609 6.57419 18.3807 6.7819C18.4401 6.88509 18.4718 6.98875 18.4872 7.08364C18.528 7.23312 18.5215 7.38072 18.4896 7.50816C18.4208 7.78266 18.228 7.99679 18.0525 8.16056C17.9021 8.30098 15.9567 10.1768 14.0376 12.0286C13.0805 12.952 12.1333 13.8664 11.4252 14.5499L10.9602 14.9988L16.8321 19.5006C16.9668 19.5489 17.0464 19.5464 17.0832 19.5413C17.1271 19.5354 17.163 19.5185 17.1997 19.4891C17.2407 19.4563 17.2766 19.412 17.3034 19.3697L17.3045 19.3679L20.195 4.79493C20.1521 4.80524 20.1087 4.81752 20.0669 4.83083C20.0196 4.8459 19.9805 4.86025 19.9547 4.87029C19.9418 4.87525 19.9326 4.87902 19.9276 4.8811L19.9259 4.88178ZM11.4646 17.2757L10.2931 16.3775L10.0093 18.1833L11.4646 17.2757ZM9.21846 14.5953L10.3834 13.4706C11.0915 12.7871 12.0389 11.8727 12.9961 10.9492L13.9686 10.0109L7.44853 13.8277L7.48351 13.9102C7.66121 14.3293 7.90087 14.8966 8.14845 15.489C8.33358 15.932 8.52717 16.3984 8.70349 16.8302L8.98653 15.0298C9.01381 14.8562 9.09861 14.7059 9.21846 14.5953Z" fill="#1B2B19"/>
</svg>
